<svg width="273" height="243" viewBox="0 0 273 243" fill="none" xmlns="http://www.w3.org/2000/svg">
<path d="M114.359 171.809L118.607 161.262H154.643L158.891 171.809H114.359ZM106.156 192.902L110.258 182.355H162.846L167.387 192.902H106.156ZM97.9531 213.996L102.055 203.449H171.195L175.59 213.996H97.9531ZM12.2598 243H0.833984L96.7812 0.421875H108.207L204.008 243H192.729L102.494 14.6309L12.2598 243ZM103.812 39.6797L109.818 53.1562L34.8184 243H23.5391L103.812 39.6797ZM115.531 67.5117L121.098 82.0137L57.6699 243H46.2441L115.531 67.5117ZM126.664 96.5156L132.23 111.311L80.2285 243H68.9492L126.664 96.5156ZM272.123 243H260.697L164.896 0.421875H176.176L272.123 243ZM153.471 0.421875L249.418 243H238.139L142.191 0.421875H153.471ZM130.766 0.421875L226.713 243H215.287L119.486 0.421875H130.766Z" fill="black"/>
</svg>
